HIERARCHY
ROOT joint_Root
{
	OFFSET 0.0 0.0 0.0
	CHANNELS 6 Xposition Yposition Zposition Zrotation Xrotation Yrotation 
	JOINT Hips
	{
		OFFSET 4.5925 91.4895 -427.239
		CHANNELS 6 Xposition Yposition Zposition Zrotation Xrotation Yrotation 
		JOINT Spine
		{
			OFFSET 15.7357 0.0 0.0
			CHANNELS 6 Xposition Yposition Zposition Zrotation Xrotation Yrotation 
			JOINT Chest
			{
				OFFSET 8.98455 -0.406207 0.0
				CHANNELS 6 Xposition Yposition Zposition Zrotation Xrotation Yrotation 
				JOINT Neck
				{
					OFFSET 16.3773 0.0 0.0
					CHANNELS 6 Xposition Yposition Zposition Zrotation Xrotation Yrotation 
					JOINT Head
					{
						OFFSET 6.45672 0.0 0.0
						CHANNELS 6 Xposition Yposition Zposition Zrotation Xrotation Yrotation 
						End Site
						{
							OFFSET 0.0 0.0 0.0
						}
					}
				}
				JOINT Shoulder_L
				{
					OFFSET 12.9942 -0.242716 4.98039
					CHANNELS 6 Xposition Yposition Zposition Zrotation Xrotation Yrotation 
					JOINT UpperArm_L
					{
						OFFSET 5.34809 0.0 0.0
						CHANNELS 6 Xposition Yposition Zposition Zrotation Xrotation Yrotation 
						JOINT LowerArm_L
						{
							OFFSET 24.3286 1.87007e-05 0.0
							CHANNELS 6 Xposition Yposition Zposition Zrotation Xrotation Yrotation 
							JOINT Hand_L
							{
								OFFSET 22.2916 0.0 0.0
								CHANNELS 6 Xposition Yposition Zposition Zrotation Xrotation Yrotation 
								End Site
								{
									OFFSET 0.0 0.0 0.0
								}
							}
						}
					}
				}
				JOINT Shoulder_R
				{
					OFFSET 12.9945 -0.242716 -4.98039
					CHANNELS 6 Xposition Yposition Zposition Zrotation Xrotation Yrotation 
					JOINT UpperArm_R
					{
						OFFSET -5.34813 0.0 0.0
						CHANNELS 6 Xposition Yposition Zposition Zrotation Xrotation Yrotation 
						JOINT LowerArm_R
						{
							OFFSET -24.3289 0.000322201 0.0
							CHANNELS 6 Xposition Yposition Zposition Zrotation Xrotation Yrotation 
							JOINT Hand_R
							{
								OFFSET -22.2915 -0.000108084 0.0
								CHANNELS 6 Xposition Yposition Zposition Zrotation Xrotation Yrotation 
								End Site
								{
									OFFSET 0.0 0.0 0.0
								}
							}
						}
					}
				}
			}
		}
		JOINT UpperLeg_L
		{
			OFFSET -2.19248 -6.46944 0.0
			CHANNELS 6 Xposition Yposition Zposition Zrotation Xrotation Yrotation 
			JOINT LowerLeg_L
			{
				OFFSET 39.0811 0.0 -1.23785e-05
				CHANNELS 6 Xposition Yposition Zposition Zrotation Xrotation Yrotation 
				JOINT Foot_L
				{
					OFFSET 40.9854 0.0 -1.26872e-05
					CHANNELS 6 Xposition Yposition Zposition Zrotation Xrotation Yrotation 
					JOINT Toes_L
					{
						OFFSET 11.7543 0.0 0.0
						CHANNELS 6 Xposition Yposition Zposition Zrotation Xrotation Yrotation 
						End Site
						{
							OFFSET 0.0 0.0 0.0
						}
					}
				}
			}
		}
		JOINT UpperLeg_R
		{
			OFFSET -2.19251 6.46944 0.0
			CHANNELS 6 Xposition Yposition Zposition Zrotation Xrotation Yrotation 
			JOINT LowerLeg_R
			{
				OFFSET -39.0811 -0.00228153 -0.0401928
				CHANNELS 6 Xposition Yposition Zposition Zrotation Xrotation Yrotation 
				JOINT Foot_R
				{
					OFFSET -40.9854 0.0 0.0
					CHANNELS 6 Xposition Yposition Zposition Zrotation Xrotation Yrotation 
					JOINT Toes_R
					{
						OFFSET -11.7543 0.0 0.0
						CHANNELS 6 Xposition Yposition Zposition Zrotation Xrotation Yrotation 
						End Site
						{
							OFFSET 0.0 0.0 0.0
						}
					}
				}
			}
		}
	}
}
MOTION
Frames:	4
Frame Time:	0.0333333
0.000000 0.000000 0.000000 0.000000 0.000000 -0.000000 92.739100 86.037900 177.191000 -80.818900 40.431200 171.047000 15.735700 0.000005 -0.000001 39.801900 82.644200 -38.966900 8.984550 -0.406207 -0.000000 1.770690 -11.339600 1.848440 16.377300 -0.000001 -0.000001 1.952260 6.011950 -1.339480 6.456720 -0.000001 -0.000000 -3.424300 14.771600 -0.898812 12.994200 -0.242716 4.980390 -86.840900 -8.422930 -69.357700 5.348090 -0.000007 -0.000001 -42.147400 27.122400 -71.845300 24.328600 0.000019 0.000005 6.354960 -3.265640 -117.085000 22.291600 -0.000001 0.000005 7.414080 5.488160 -6.067250 12.994500 -0.242716 -4.980390 91.613800 -5.167900 -72.639800 -5.348130 -0.000001 -0.000004 -67.409200 32.707000 33.154700 -24.328900 0.000322 -0.000009 -2.655480 -0.763577 -73.960500 -22.291500 -0.000108 -0.000004 15.713800 5.649110 -14.926700 -2.192480 -6.469440 -0.000000 -174.922000 -1.391010 11.165900 39.081100 -0.000007 -0.000012 0.038223 -0.069648 28.757900 40.985400 -0.000006 -0.000013 14.324100 9.164350 -75.780000 11.754300 -0.000000 0.000003 -0.085739 -0.407712 -33.529600 -2.192510 6.469440 -0.000001 177.962000 17.449400 146.842000 -39.081100 -0.002282 -0.040193 -0.046854 0.112290 24.073500 -40.985400 0.000008 0.000006 -5.044960 9.395110 -62.376600 -11.754300 -0.000006 -0.000006 -0.026635 -0.201608 -24.824900
0.000000 0.000000 0.000000 0.000000 0.000000 -0.000000 97.764200 84.384700 174.800000 -80.638500 38.311900 171.570000 15.735700 0.000005 -0.000001 47.437400 82.870100 -46.528500 8.984550 -0.406207 -0.000000 2.850800 -9.675330 2.060480 16.377300 -0.000001 -0.000001 1.007930 5.187500 -0.928710 6.456720 -0.000001 -0.000000 -4.506830 13.728600 -0.671539 12.994200 -0.242716 4.980390 -88.556300 -4.252550 -71.242800 5.348090 -0.000007 -0.000001 -43.968300 32.165400 -62.529400 24.328600 0.000019 0.000005 5.527060 -2.159330 -111.266000 22.291600 -0.000001 0.000005 6.979490 5.509620 -6.926590 12.994500 -0.242716 -4.980390 89.480600 1.950450 -75.016700 -5.348130 -0.000001 -0.000004 -64.655400 30.752600 28.603300 -24.328900 0.000322 -0.000009 -4.311330 -1.249750 -73.839300 -22.291500 -0.000108 -0.000004 19.252800 5.648050 -14.845700 -2.192480 -6.469440 -0.000000 -172.495000 -0.317443 11.219500 39.081100 -0.000007 -0.000012 0.052118 -0.073351 35.393900 40.985400 -0.000006 -0.000013 13.510600 9.700890 -73.946600 11.754300 -0.000000 0.000003 -0.197610 -0.641130 -44.038600 -2.192510 6.469440 -0.000001 177.447000 17.914300 143.492000 -39.081100 -0.002282 -0.040193 -0.199056 0.293347 34.597800 -40.985400 0.000008 0.000006 -9.833800 7.122050 -55.095700 -11.754300 -0.000006 -0.000006 -0.034950 -0.239317 -26.390400
0.000000 0.000000 0.000000 0.000000 0.000000 -0.000000 103.329000 82.936800 171.688000 -79.829000 37.128600 172.837000 15.735700 0.000005 -0.000001 57.438500 83.145700 -56.175300 8.984550 -0.406207 -0.000000 3.898020 -7.410480 2.778830 16.377300 -0.000001 -0.000001 0.649418 6.061660 -2.347610 6.456720 -0.000001 -0.000000 -3.585250 12.014400 -0.729599 12.994200 -0.242716 4.980390 -90.396300 1.270200 -72.680900 5.348090 -0.000007 -0.000001 -52.047100 35.518000 -44.684000 24.328600 0.000019 0.000005 4.378350 -0.866223 -101.148000 22.291600 -0.000001 0.000005 6.388710 5.508510 -6.880950 12.994500 -0.242716 -4.980390 87.795300 9.883570 -77.355400 -5.348130 -0.000001 -0.000004 -60.081000 31.743700 22.400400 -24.328900 0.000322 -0.000009 -8.634120 -1.279170 -81.613800 -22.291500 -0.000108 -0.000004 21.683000 5.656180 -15.600900 -2.192480 -6.469440 -0.000000 -169.264000 -1.321170 9.627000 39.081100 -0.000007 -0.000012 0.131641 -0.128112 45.777800 40.985400 -0.000006 -0.000013 12.511800 10.896800 -64.025000 11.754300 -0.000000 0.000003 -0.442409 -0.945514 -59.927400 -2.192510 6.469440 -0.000001 177.097000 16.546800 143.463000 -39.081100 -0.002282 -0.040193 -0.136797 0.140744 44.860900 -40.985400 0.000008 0.000006 -9.351980 6.249390 -56.566500 -11.754300 -0.000006 -0.000006 -0.017436 -0.152647 -22.805300
0.000000 0.000000 0.000000 0.000000 0.000000 -0.000000 108.536000 81.876600 168.331000 -78.472500 37.498900 175.419000 15.735700 0.000005 -0.000001 70.353200 82.916800 -68.548700 8.984550 -0.406207 -0.000000 5.669170 -4.784550 3.843580 16.377300 -0.000001 -0.000001 1.688510 6.726720 -2.168170 6.456720 -0.000001 -0.000000 -2.323340 12.496700 -4.074570 12.994200 -0.242716 4.980390 -91.031500 3.099330 -71.581500 5.348090 -0.000007 -0.000001 -66.012300 32.963000 -24.223600 24.328600 0.000019 0.000005 7.089520 0.757355 -84.064800 22.291600 -0.000001 0.000005 7.037130 5.507010 -6.817930 12.994500 -0.242716 -4.980390 87.350200 12.189800 -77.637400 -5.348130 -0.000001 -0.000004 -57.025300 36.108800 5.881860 -24.328900 0.000322 -0.000009 -8.579650 0.298102 -91.993500 -22.291500 -0.000108 -0.000004 21.346700 5.663750 -16.496600 -2.192480 -6.469440 -0.000000 -166.858000 -2.356050 5.890460 39.081100 -0.000007 -0.000012 0.295549 -0.175189 59.341800 40.985400 -0.000006 -0.000013 8.873190 9.568320 -46.801200 11.754300 -0.000000 0.000003 -0.299078 -0.788782 -51.307400 -2.192510 6.469440 -0.000001 177.155000 15.717700 147.266000 -39.081100 -0.002282 -0.040193 -0.298201 0.226970 53.022100 -40.985400 0.000008 0.000006 -8.334520 7.307090 -65.031700 -11.754300 -0.000006 -0.000006 -0.004662 -0.058154 -18.939000
